<svg width="24" height="18" viewBox="0 0 24 18" fill="none" xmlns="http://www.w3.org/2000/svg">
    <path fill-rule="evenodd" clip-rule="evenodd" d="M1.5 18C1.5 18 0 18 0 16.5C0 15 1.5 10.5 9 10.5C16.5 10.5 18 15 18 16.5C18 18 16.5 18 16.5 18H1.5ZM9 9C10.1935 9 11.3381 8.52589 12.182 7.68198C13.0259 6.83807 13.5 5.69347 13.5 4.5C13.5 3.30653 13.0259 2.16193 12.182 1.31802C11.3381 0.474106 10.1935 0 9 0C7.80653 0 6.66193 0.474106 5.81802 1.31802C4.97411 2.16193 4.5 3.30653 4.5 4.5C4.5 5.69347 4.97411 6.83807 5.81802 7.68198C6.66193 8.52589 7.80653 9 9 9ZM19.5 11.25C19.5 11.0511 19.579 10.8603 19.7197 10.7197C19.8603 10.579 20.0511 10.5 20.25 10.5H23.25C23.4489 10.5 23.6397 10.579 23.7803 10.7197C23.921 10.8603 24 11.0511 24 11.25C24 11.4489 23.921 11.6397 23.7803 11.7803C23.6397 11.921 23.4489 12 23.25 12H20.25C20.0511 12 19.8603 11.921 19.7197 11.7803C19.579 11.6397 19.5 11.4489 19.5 11.25ZM16.5 6.75C16.5 6.55109 16.579 6.36032 16.7197 6.21967C16.8603 6.07902 17.0511 6 17.25 6H23.25C23.4489 6 23.6397 6.07902 23.7803 6.21967C23.921 6.36032 24 6.55109 24 6.75C24 6.94891 23.921 7.13968 23.7803 7.28033C23.6397 7.42098 23.4489 7.5 23.25 7.5H17.25C17.0511 7.5 16.8603 7.42098 16.7197 7.28033C16.579 7.13968 16.5 6.94891 16.5 6.75ZM16.5 2.25C16.5 2.05109 16.579 1.86032 16.7197 1.71967C16.8603 1.57902 17.0511 1.5 17.25 1.5H23.25C23.4489 1.5 23.6397 1.57902 23.7803 1.71967C23.921 1.86032 24 2.05109 24 2.25C24 2.44891 23.921 2.63968 23.7803 2.78033C23.6397 2.92098 23.4489 3 23.25 3H17.25C17.0511 3 16.8603 2.92098 16.7197 2.78033C16.579 2.63968 16.5 2.44891 16.5 2.25ZM19.5 15.75C19.5 15.5511 19.579 15.3603 19.7197 15.2197C19.8603 15.079 20.0511 15 20.25 15H23.25C23.4489 15 23.6397 15.079 23.7803 15.2197C23.921 15.3603 24 15.5511 24 15.75C24 15.9489 23.921 16.1397 23.7803 16.2803C23.6397 16.421 23.4489 16.5 23.25 16.5H20.25C20.0511 16.5 19.8603 16.421 19.7197 16.2803C19.579 16.1397 19.5 15.9489 19.5 15.75Z" fill="black"/>
</svg>